# .PCD v0.7 - Point Cloud Data file format
VERSION 0.7
FIELDS x y z
SIZE 4 4 4
TYPE F F F
COUNT 1 1 1
WIDTH 85
HEIGHT 1
VIEWPOINT 0 0 0 1 0 0 0
POINTS 85
DATA ascii
-0.51209795 0.37180781 0.97943723
-0.47354123 0.37757328 0.9831382
-0.43029478 0.37558404 0.99264771
-0.55042976 0.36813542 1.0150001
-0.53641164 0.37345901 1.0119669
-0.46414691 0.3848004 1.0154494
-0.4205015 0.38714072 1.0233843
-0.38804287 0.38180506 1.0449034
-0.41242775 0.40307549 1.038357
-0.59067887 0.33197799 1.0858654
-0.56354159 0.35980314 1.0946167
-0.54832494 0.37735057 1.0815001
-0.47154117 0.38333088 1.0622965
-0.42139199 0.37987888 1.0609258
-0.37122765 0.38576156 1.0723624
-0.34204274 0.37859762 1.0889609
-0.40664724 0.40717185 1.0545418
-0.37391186 0.41134214 1.0776129
-0.34750408 0.41514739 1.088148
-0.61387831 0.3498787 1.1320001
-0.53352815 0.34763607 1.1186787
-0.4639689 0.34603059 1.1274445
-0.61080462 0.37256017 1.1204624
-0.59964305 0.39641839 1.1057501
-0.50583428 0.36822373 1.1349802
-0.47623757 0.36248958 1.1206634
-0.40319338 0.36039209 1.1456429
-0.37640098 0.37148884 1.1245604
-0.32821876 0.38808635 1.1149002
-0.27995661 0.39098665 1.1451024
-0.60244834 0.40261248 1.1075001
-0.35107157 0.41242388 1.117375
-0.33167928 0.42021912 1.1230006
-0.28291494 0.40441161 1.1463845
-0.50547433 0.34563673 1.1787096
-0.48458838 0.34710816 1.1732562
-0.44202334 0.34608841 1.1785001
-0.60449845 0.37683401 1.1595
-0.59421158 0.37004602 1.1565
-0.5142777 0.35954806 1.1589071
-0.48723474 0.35644016 1.1782542
-0.41516736 0.36578804 1.174489
-0.39651367 0.37384048 1.1708332
-0.30060995 0.39757499 1.1605
-0.28534034 0.39271307 1.1593636
-0.58758622 0.41310635 1.17425
-0.53696626 0.40793827 1.19075
-0.48291001 0.41959274 1.156875
-0.31534618 0.41882896 1.1581314
-0.27861857 0.41685927 1.1699311
-0.31013495 0.45390806 1.1731591
-0.29766223 0.45902607 1.1835834
-0.60575193 0.33607382 1.2343621
-0.56498325 0.33199024 1.2149643
-0.51715702 0.34436262 1.2122871
-0.4041509 0.34895957 1.23625
-0.39777374 0.34881842 1.2357501
-0.55876446 0.35156813 1.2345001
-0.4579913 0.36107415 1.2142501
-0.41963601 0.36221293 1.22525
-0.39777374 0.35088888 1.2357501
-0.35391656 0.42957136 1.2417499
-0.27444342 0.42887816 1.2138035
-0.24458191 0.42956194 1.2211123
-0.6164161 0.33246022 1.2537
-0.51518863 0.33030871 1.2881429
-0.4901545 0.33974448 1.25025
-0.44605872 0.34388232 1.2665002
-0.31713772 0.34057733 1.2867501
-0.20569123 0.39208475 1.2617143
-0.2375789 0.42996413 1.265117
-0.31956196 0.47578806 1.2622501
-0.52866137 0.32998988 1.3057859
-0.46286142 0.35181499 1.3085001
-0.55373198 0.40293059 1.31075
-0.53119093 0.41801715 1.32025
-0.42829362 0.41045868 1.3067502
-0.24706881 0.42696461 1.3274374
-0.15929712 0.41168687 1.328375
-0.21798889 0.46838856 1.3065001
-0.66624469 0.36485735 1.37125
-0.68522382 0.4208684 1.358
-0.50841188 0.41556704 1.363
-0.35088372 0.4121882 1.3874999
-0.34662011 0.41025099 1.3874999
